<svg width="128" height="128" viewBox="0 0 128 128" fill="none" xmlns="http://www.w3.org/2000/svg">
<g clip-path="url(#clip0_309_317)">
<path d="M97.5157 83.449C97.1275 83.0458 96.6832 82.7285 96.2203 82.4485L98.4192 80.1674C100.786 77.7071 100.786 73.7013 98.4192 71.2373L97.5195 70.3002C97.1349 69.9007 96.6869 69.5797 96.2165 69.2997L98.4192 67.0111C100.786 64.5471 100.786 60.545 98.4192 58.081L97.5195 57.1439C96.8923 56.4943 96.1269 56.009 95.3019 55.6879L100.2 50.5957C102.735 47.9562 102.645 43.7039 100.2 41.1578C97.7472 38.6042 93.6107 38.4213 90.8667 40.5157V22.1999C90.8667 18.0821 87.5179 14.7333 83.4 14.7333H49.8C45.6821 14.7333 42.3333 18.0821 42.3333 22.1999V32.3621C41.1349 31.8245 39.8208 31.5333 38.4693 31.5333C35.3893 31.5333 33.0896 34.2698 33.5227 37.2266L34.8667 46.4666C34.6277 56.7146 35.5088 59.4399 33.7952 63.7146C32.0293 68.1311 31.1333 72.7866 31.1333 77.5466V96.0453C31.1333 100.943 29.3787 105.688 26.1904 109.411L24.3813 111.187C22.7573 113.076 25.6432 115.458 27.2149 113.613L29.024 111.837C32.7909 107.443 34.8667 101.836 34.8667 96.0453V77.5466C34.8667 73.2645 35.6731 69.0757 37.2635 65.0997C39.3728 59.8245 38.3163 56.4906 38.5813 46.2015L37.2149 36.6927C37.1104 35.9722 37.6741 35.2666 38.4693 35.2666C39.9253 35.2666 41.288 35.8378 42.3333 36.8085V96.8666C42.3333 100.984 45.6821 104.333 49.8 104.333H70.3296C69.3141 105.016 68.952 105.375 68.1232 105.722C64.3675 107.432 62.5195 107.648 60.5072 109.661L46.0821 122.086C45.3541 122.814 45.3541 123.997 46.0821 124.725C46.8101 125.453 47.9936 125.453 48.7216 124.725L63.1467 112.3C64.4197 111.031 65.4016 111.012 69.5605 109.168C71.1061 108.526 71.5392 107.977 76.8443 104.337H83.4C86.816 104.337 89.672 102.015 90.5568 98.7295C92.2853 98.7071 93.9056 98.009 95.1264 96.7434L98.4192 93.3237C100.805 90.841 100.801 86.865 98.4192 84.3898L97.5157 83.449ZM95.7275 77.5765L92.4347 80.9999C91.3781 82.0938 89.5787 82.0975 88.5259 80.9999L87.8763 80.3242C86.8981 79.305 86.8757 77.6101 87.8763 76.5722C88.2347 76.1989 91.7776 72.5178 91.4155 72.8949C92.3675 71.8981 93.8832 71.9093 94.8277 72.8949L95.7275 73.8319C96.7205 74.8623 96.7205 76.5461 95.7275 77.5765ZM95.7275 60.6757C96.7243 61.7098 96.7243 63.3935 95.7275 64.4277L92.4347 67.8474C91.3819 68.9413 89.5749 68.9375 88.5259 67.8474L87.8763 67.1717C86.9205 66.1749 86.8608 64.5247 87.8501 63.4607C88.2085 63.0874 91.7776 59.3615 91.4192 59.7386C92.3749 58.7418 93.8907 58.7605 94.8315 59.7386L95.7275 60.6757ZM92.7931 43.7487C95.7237 40.7061 100.383 45.033 97.5083 48.0122L90.8667 54.9151V45.7647L92.7931 43.7487ZM74.7797 18.4666L72.9131 22.1999H60.2869L58.4203 18.4666H74.7797ZM83.4 100.6H49.8C47.7429 100.6 46.0667 98.9237 46.0667 96.8666V95.8287C47.168 96.4709 48.4336 96.8666 49.8 96.8666H77.8C80.2715 96.8666 80.2677 93.1333 77.8 93.1333H49.8C47.7429 93.1333 46.0667 91.457 46.0667 89.3999V22.1999C46.0667 20.1429 47.7429 18.4666 49.8 18.4666H54.2427L57.4608 24.9066C57.7819 25.5375 58.4277 25.9333 59.1333 25.9333H74.0667C74.7723 25.9333 75.4181 25.5338 75.7355 24.9029L78.9573 18.4666H83.4C85.4571 18.4666 87.1333 20.1429 87.1333 22.1999V58.8015C85.7893 60.2426 85.1845 60.7391 84.7291 61.3999C82.7168 64.0319 83.0715 67.5599 85.1845 69.7626C85.5691 70.1247 86.0357 70.7781 87.1333 71.4575V71.9578L85.1845 73.985C82.8288 76.4303 82.7765 80.4138 85.1845 82.9189C85.5691 83.281 86.0357 83.9343 87.1333 84.6138V85.1178L85.1883 87.1413C82.8213 89.6053 82.8213 93.6074 85.1883 96.0677C85.6699 96.5343 86.0059 97.0346 86.9765 97.6767C86.592 99.3269 85.1733 100.6 83.4 100.6ZM95.7275 90.729L92.4347 94.1487C91.3819 95.2463 89.5787 95.2426 88.5296 94.1487L87.88 93.4693C86.8832 92.4351 86.8832 90.7514 87.88 89.7173L91.4192 86.0399C92.3899 85.0319 93.8981 85.0693 94.8277 86.0362L95.7275 86.9733C96.7168 88.0037 96.7168 89.6986 95.7275 90.729Z" fill="#0C1E10"/>
<path d="M67.0009 67.7273L67.0259 67.7025" stroke="#00DA30" stroke-width="3" stroke-linecap="round" stroke-linejoin="round"/>
<path d="M62.7418 63.4997C65.0941 61.1648 68.9078 61.1648 71.26 63.4997" stroke="#00DA30" stroke-width="3" stroke-linecap="round" stroke-linejoin="round"/>
<path d="M58.4827 59.2721C63.1872 54.6025 70.8146 54.6025 75.5191 59.2721" stroke="#00DA30" stroke-width="3" stroke-linecap="round" stroke-linejoin="round"/>
<path d="M54.2 55.5354C61.2692 48.5185 72.7308 48.5185 79.8 55.5354" stroke="#00DA30" stroke-width="3" stroke-linecap="round" stroke-linejoin="round"/>
</g>
<rect x="2" y="2" width="124" height="124" rx="62" stroke="#0C1E10" stroke-width="4" stroke-linejoin="round"/>
<defs>
<clipPath id="clip0_309_317">
<rect width="112" height="112" fill="white" transform="translate(5 11)"/>
</clipPath>
</defs>
</svg>
