<svg width="18" height="18" viewBox="0 0 18 18" fill="none" xmlns="http://www.w3.org/2000/svg">
<path fill-rule="evenodd" clip-rule="evenodd" d="M4.43304 0.75C4.84725 0.75 5.18304 1.08579 5.18304 1.5V2.01562H12.2812V1.5C12.2812 1.08579 12.617 0.75 13.0312 0.75C13.4455 0.75 13.7812 1.08579 13.7812 1.5V2.10173C15.232 2.44095 16.3125 3.74273 16.3125 5.29687L16.3125 13.7345C16.3125 15.5466 14.8434 17.0157 13.0312 17.0157H4.59375C2.78157 17.0157 1.3125 15.5466 1.3125 13.7345V5.29687C1.3125 3.80068 2.31391 2.53839 3.68304 2.14366V1.5C3.68304 1.08579 4.01882 0.75 4.43304 0.75ZM4.59375 3.51562C3.60999 3.51562 2.8125 4.31312 2.8125 5.29687V5.60736C2.84321 5.60353 2.8745 5.60156 2.90625 5.60156H14.7188C14.7505 5.60156 14.7818 5.60353 14.8125 5.60736V5.29687C14.8125 4.31312 14.015 3.51562 13.0312 3.51562H4.59375ZM14.8125 7.09576C14.7818 7.09959 14.7505 7.10156 14.7188 7.10156H2.90625C2.8745 7.10156 2.84321 7.09959 2.8125 7.09576V13.7345C2.8125 14.7182 3.60999 15.5157 4.59375 15.5157H13.0312C14.015 15.5157 14.8125 14.7182 14.8125 13.7345L14.8125 7.09576ZM9.23438 8.91315C9.64859 8.91315 9.98438 9.24894 9.98438 9.66315V9.7266C9.98438 10.1408 9.64859 10.4766 9.23438 10.4766C8.82016 10.4766 8.48438 10.1408 8.48438 9.7266V9.66315C8.48438 9.24894 8.82016 8.91315 9.23438 8.91315ZM12.6094 8.91315C13.0236 8.91315 13.3594 9.24894 13.3594 9.66315V9.7266C13.3594 10.1408 13.0236 10.4766 12.6094 10.4766C12.1952 10.4766 11.8594 10.1408 11.8594 9.7266V9.66315C11.8594 9.24894 12.1952 8.91315 12.6094 8.91315ZM5.4375 12.3516C5.85171 12.3516 6.1875 12.6874 6.1875 13.1016V13.165C6.1875 13.5793 5.85171 13.915 5.4375 13.915C5.02329 13.915 4.6875 13.5793 4.6875 13.165V13.1016C4.6875 12.6874 5.02329 12.3516 5.4375 12.3516ZM9.23438 12.3516C9.64859 12.3516 9.98438 12.6874 9.98438 13.1016V13.165C9.98438 13.5793 9.64859 13.915 9.23438 13.915C8.82016 13.915 8.48438 13.5793 8.48438 13.165V13.1016C8.48438 12.6874 8.82016 12.3516 9.23438 12.3516Z" fill="#00DA30"/>
</svg>
