<svg width="22" height="22" viewBox="0 0 22 22" fill="none" xmlns="http://www.w3.org/2000/svg">
<g clip-path="url(#clip0_370_121)">
<path d="M21.77 6.07085C21.4036 4.63391 20.6226 3.39487 19.5115 2.48766C18.4291 1.60394 17.1029 1.11719 15.7777 1.11719C14.7618 1.11719 13.7925 1.39078 12.897 1.93024C12.1899 2.3564 11.5539 2.93598 10.9981 3.65939C9.73443 2.01231 8.06603 1.11719 6.22072 1.11719C4.89591 1.11719 3.57042 1.60394 2.48814 2.48766C1.37733 3.39487 0.596509 4.63391 0.2301 6.07068C-0.168201 7.63317 -0.24541 10.1302 1.65008 13.153C3.40459 15.9508 6.4458 18.5432 10.6895 20.858C10.7856 20.9104 10.8917 20.9367 10.998 20.9367C11.1042 20.9367 11.2103 20.9105 11.3065 20.858C15.5513 18.543 18.5935 15.9506 20.3487 13.153C22.2451 10.1302 22.1683 7.63334 21.77 6.07085ZM10.998 19.5565C5.96777 16.757 3.47861 13.9805 2.29562 11.6714H4.09712C4.34134 11.6714 4.56441 11.5334 4.67351 11.3152L5.47766 9.70691L7.66219 14.0761C7.77129 14.2945 7.99453 14.4325 8.23857 14.4325C8.48262 14.4325 8.70586 14.2945 8.81496 14.0761L10.9995 9.70691L11.8036 11.3152C11.9129 11.5336 12.136 11.6714 12.38 11.6714H17.2674C17.6232 11.6714 17.9118 11.3829 17.9118 11.027C17.9118 10.6712 17.6232 10.3827 17.2674 10.3827H12.7783L11.576 7.97776C11.4668 7.75939 11.2437 7.62159 10.9995 7.62159C10.7554 7.62159 10.5324 7.75939 10.4233 7.97776L8.23857 12.347L6.05405 7.97776C5.94478 7.75939 5.72171 7.62159 5.47766 7.62159C5.23345 7.62159 5.01038 7.75939 4.90128 7.97776L3.69882 10.3827H1.74525C1.1066 8.51537 1.30247 7.08146 1.47905 6.38925C2.07709 4.0441 4.02679 2.40608 6.22072 2.40608C7.88005 2.40608 9.38094 3.37557 10.4468 5.13561C10.5634 5.32846 10.7724 5.44629 10.9978 5.44629H10.998C11.2232 5.44629 11.4324 5.32863 11.5492 5.13578C12.6159 3.37557 14.1176 2.40608 15.7777 2.40608C17.9725 2.40608 19.9231 4.0441 20.5211 6.38925C20.9359 8.01603 21.4582 13.7362 10.998 19.5565Z" fill="#F43131"/>
</g>
<defs>
<clipPath id="clip0_370_121">
<rect width="22" height="22" fill="white"/>
</clipPath>
</defs>
</svg>
