<svg width="28" height="28" viewBox="0 0 28 28" fill="none" xmlns="http://www.w3.org/2000/svg">
<g clip-path="url(#clip0_290_63)">
<path d="M27.1242 12.2492C26.6412 12.2492 26.2492 12.6412 26.2492 13.1241V23.032L19.2497 25.8318V16.6239C19.2497 16.1409 18.8577 15.749 18.3747 15.749C17.8917 15.749 17.4998 16.1409 17.4998 16.6239V25.8301L10.5002 23.0303V9.16763L14.5547 10.7898C14.9974 10.9683 15.5119 10.7513 15.6921 10.3016C15.8724 9.85358 15.6536 9.34437 15.2039 9.16413L9.96648 7.06776C9.96648 7.06776 9.96648 7.06776 9.96473 7.06776L9.95073 7.06251C9.7425 6.97851 9.50976 6.97851 9.30152 7.06251L9.28577 7.06776C9.28577 7.06776 9.28577 7.06776 9.28402 7.06776L0.55032 10.5623C0.219591 10.6953 0.000854492 11.0155 0.000854492 11.3742V27.1233C0.000854492 27.4137 0.146095 27.685 0.38583 27.8477C0.532821 27.9475 0.702561 27.9982 0.8758 27.9982C0.986043 27.9982 1.09629 27.9772 1.20128 27.9352L9.62525 24.5667L18.0335 27.93C18.0335 27.93 18.0335 27.93 18.0352 27.93L18.051 27.937C18.2592 28.0209 18.4919 28.0209 18.7002 27.937L18.7159 27.93C18.7159 27.93 18.7159 27.93 18.7177 27.93L27.4514 24.4372C27.7804 24.3024 27.9991 23.9822 27.9991 23.6235V13.1241C27.9991 12.6412 27.6071 12.2492 27.1242 12.2492ZM8.75031 23.0303L1.75075 25.8301V11.9657L8.75031 9.16588V23.0303Z" fill="#F4F4F4"/>
<path d="M21.8745 3.49976C20.4274 3.49976 19.2497 4.67743 19.2497 6.12459C19.2497 7.57175 20.4274 8.74943 21.8745 8.74943C23.3217 8.74943 24.4994 7.57175 24.4994 6.12459C24.4994 4.67743 23.3217 3.49976 21.8745 3.49976ZM21.8745 6.99954C21.3916 6.99954 20.9996 6.60756 20.9996 6.12459C20.9996 5.64162 21.3916 5.24965 21.8745 5.24965C22.3575 5.24965 22.7495 5.64162 22.7495 6.12459C22.7495 6.60756 22.3575 6.99954 21.8745 6.99954Z" fill="#F4F4F4"/>
<path d="M21.8745 0C18.4972 0 15.7499 2.74733 15.7499 6.12462C15.7499 9.26742 20.6636 14.8338 21.2235 15.4585C21.3898 15.6423 21.626 15.749 21.8745 15.749C22.123 15.749 22.3592 15.6423 22.5255 15.4585C23.0854 14.8338 27.9991 9.26742 27.9991 6.12462C27.9991 2.74733 25.2518 0 21.8745 0ZM21.8745 13.5389C19.9636 11.2728 17.4998 7.79401 17.4998 6.12462C17.4998 3.71327 19.4631 1.74989 21.8745 1.74989C24.2858 1.74989 26.2492 3.71327 26.2492 6.12462C26.2492 7.79226 23.7854 11.2728 21.8745 13.5389Z" fill="#F4F4F4"/>
</g>
<defs>
<clipPath id="clip0_290_63">
<rect width="28" height="28" fill="white"/>
</clipPath>
</defs>
</svg>
