<svg width="28" height="28" viewBox="0 0 28 28" fill="none" xmlns="http://www.w3.org/2000/svg">
<path fill-rule="evenodd" clip-rule="evenodd" d="M14.2119 4.02918C14.0886 3.94578 13.9115 3.94578 13.7882 4.02918L4.0815 10.5934C3.99517 10.6518 3.9667 10.7278 3.9667 10.7844V23.0697C3.9667 23.5474 4.39131 24.0333 5.04003 24.0333H22.96C23.6087 24.0333 24.0334 23.5474 24.0334 23.0697V10.7844C24.0334 10.7278 24.0049 10.6518 23.9186 10.5934L14.2119 4.02918ZM12.481 2.09634C13.394 1.47895 14.6061 1.47896 15.519 2.09634L25.2257 8.6606C25.9272 9.13504 26.3667 9.92162 26.3667 10.7844V23.0697C26.3667 24.9451 24.7855 26.3666 22.96 26.3666H5.04003C3.21451 26.3666 1.63336 24.9451 1.63336 23.0697V10.7844C1.63336 9.92162 2.07283 9.13503 2.77438 8.6606L12.481 2.09634ZM7.23336 20.3C7.23336 19.6556 7.7557 19.1333 8.40003 19.1333H19.6C20.2444 19.1333 20.7667 19.6556 20.7667 20.3C20.7667 20.9443 20.2444 21.4666 19.6 21.4666H8.40003C7.7557 21.4666 7.23336 20.9443 7.23336 20.3Z" fill="#F4F4F4"/>
</svg>
