<svg width="28" height="28" viewBox="0 0 28 28" fill="none" xmlns="http://www.w3.org/2000/svg">
<g clip-path="url(#clip0_290_73)">
<path d="M26.6317 20.9187C26.4781 19.32 25.0511 18.0645 23.3891 18.0645C23.1903 18.0645 23.0323 17.9064 23.0323 17.7077V12.3877C23.0323 8.43606 20.5033 4.99027 17.0213 3.70319C17.0619 3.49993 17.0845 3.29223 17.0845 3.08445C17.0845 1.38196 15.7027 0 14 0C12.2974 0 10.9155 1.38196 10.9155 3.08453C10.9155 3.28778 10.938 3.49096 10.9742 3.68516C9.77743 4.10969 8.67096 4.78257 7.7271 5.69483C5.94776 7.41097 4.96778 9.71869 4.96778 12.1935V17.7077C4.96778 17.9019 4.8097 18.0646 4.61097 18.0646C2.94453 18.0646 1.52192 19.32 1.36837 20.9188C1.28254 21.8085 1.57614 22.6936 2.17677 23.353C2.77288 24.0078 3.62646 24.3872 4.5161 24.3872H9.96258C10.1884 26.4149 11.9136 28.0001 14 28.0001C16.0865 28.0001 17.8117 26.4149 18.0375 24.3872H23.4839C24.3736 24.3872 25.2272 24.0078 25.8233 23.353C26.4194 22.6935 26.7175 21.8084 26.6317 20.9187ZM14 1.80642C14.7045 1.80642 15.2781 2.37997 15.2781 3.08445C15.2781 3.14313 15.269 3.19736 15.26 3.25603C14.9529 3.21086 14.6412 3.17926 14.3296 3.17021C13.7922 3.1521 13.2638 3.18831 12.7399 3.26056C12.7309 3.20188 12.7218 3.14766 12.7218 3.08898C12.722 2.37997 13.2955 1.80642 14 1.80642ZM14 26.1935C12.9117 26.1935 11.9994 25.4167 11.7871 24.3871H16.2129C16.0007 25.4168 15.0885 26.1935 14 26.1935ZM24.4865 22.138C24.2245 22.4226 23.8723 22.5806 23.4839 22.5806H4.51617C4.12777 22.5806 3.77557 22.4225 3.51356 22.138C3.25163 21.8536 3.12968 21.4787 3.17033 21.0903C3.23353 20.4084 3.87037 19.871 4.6155 19.871C5.80779 19.871 6.77872 18.9 6.77872 17.7077V12.1935C6.77872 10.2155 7.5645 8.36841 8.98712 6.99549C10.3419 5.68133 12.1123 4.96772 14 4.96772C14.0904 4.96772 14.1761 4.96772 14.2665 4.97225C18.1007 5.1077 21.2258 8.43613 21.2258 12.3877V17.7077C21.2258 18.9 22.1968 19.871 23.3891 19.871C24.1342 19.871 24.771 20.4084 24.8342 21.0903C24.8704 21.4787 24.7484 21.849 24.4865 22.138Z" fill="#F4F4F4"/>
<path d="M2.30322 10.8387C2.7187 10.8387 3.09353 10.5497 3.18388 10.1297C3.62191 8.14708 4.61095 6.34066 6.05611 4.90455C6.40839 4.55227 6.40839 3.97872 6.05611 3.62651C5.70383 3.27424 5.13028 3.27424 4.77807 3.62651C3.08908 5.30638 1.9284 7.4245 1.41812 9.74572C1.30974 10.2335 1.61684 10.7167 2.10457 10.8206C2.17682 10.8342 2.24002 10.8387 2.30322 10.8387Z" fill="#F4F4F4"/>
<path d="M25.6968 10.8388C25.76 10.8388 25.8278 10.8297 25.891 10.8162C26.3787 10.7078 26.6858 10.2291 26.5774 9.74136C26.0671 7.42006 24.9065 5.30654 23.2174 3.622C22.8651 3.26972 22.2916 3.26972 21.9394 3.622C21.5871 3.97428 21.5871 4.54783 21.9394 4.90003C23.38 6.33615 24.3735 8.14264 24.8116 10.1252C24.9065 10.5497 25.2813 10.8388 25.6968 10.8388Z" fill="#F4F4F4"/>
</g>
<defs>
<clipPath id="clip0_290_73">
<rect width="28" height="28" fill="white"/>
</clipPath>
</defs>
</svg>
