<svg width="18" height="18" viewBox="0 0 18 18" fill="none" xmlns="http://www.w3.org/2000/svg">
<path fill-rule="evenodd" clip-rule="evenodd" d="M9.00005 2.55005C7.92309 2.55005 7.05005 3.42309 7.05005 4.50005C7.05005 5.577 7.92309 6.45005 9.00005 6.45005C10.077 6.45005 10.95 5.577 10.95 4.50005C10.95 3.42309 10.077 2.55005 9.00005 2.55005ZM5.55005 4.50005C5.55005 2.59467 7.09467 1.05005 9.00005 1.05005C10.9054 1.05005 12.45 2.59467 12.45 4.50005C12.45 6.40543 10.9054 7.95005 9.00005 7.95005C7.09467 7.95005 5.55005 6.40543 5.55005 4.50005ZM3.1274 11.1664C4.49318 10.1066 6.47282 9.50719 9.00005 9.50719C11.5273 9.50719 13.5069 10.1066 14.8727 11.1664C16.2551 12.2391 16.95 13.7414 16.95 15.3844C16.95 16.1728 16.358 16.95 15.4659 16.95H2.53417C1.64214 16.95 1.05005 16.1728 1.05005 15.3844C1.05005 13.7414 1.74501 12.2391 3.1274 11.1664ZM4.04698 12.3514C3.03794 13.1344 2.55005 14.1957 2.55005 15.3844C2.55005 15.4162 2.55858 15.4378 2.56584 15.45H15.4343C15.4415 15.4378 15.45 15.4162 15.45 15.3844C15.45 14.1957 14.9622 13.1344 13.9531 12.3514C12.9275 11.5556 11.3071 11.0072 9.00005 11.0072C6.693 11.0072 5.07263 11.5556 4.04698 12.3514Z" fill="#00DA30"/>
</svg>
