<svg width="80" height="80" viewBox="0 0 80 80" fill="none" xmlns="http://www.w3.org/2000/svg">
<path fill-rule="evenodd" clip-rule="evenodd" d="M6.5 15.1111C6.5 10.3553 10.3553 6.5 15.1111 6.5H29.3333C30.1618 6.5 30.8333 7.17157 30.8333 8C30.8333 8.82843 30.1618 9.5 29.3333 9.5H15.1111C12.0122 9.5 9.5 12.0122 9.5 15.1111V29.3333C9.5 30.1618 8.82843 30.8333 8 30.8333C7.17157 30.8333 6.5 30.1618 6.5 29.3333V15.1111ZM49.1667 8C49.1667 7.17157 49.8382 6.5 50.6667 6.5H64.8889C69.6447 6.5 73.5 10.3553 73.5 15.1111V29.3333C73.5 30.1618 72.8284 30.8333 72 30.8333C71.1716 30.8333 70.5 30.1618 70.5 29.3333V15.1111C70.5 12.0122 67.9878 9.5 64.8889 9.5H50.6667C49.8382 9.5 49.1667 8.82843 49.1667 8ZM8 49.1667C8.82843 49.1667 9.5 49.8382 9.5 50.6667V64.8889C9.5 67.9878 12.0122 70.5 15.1111 70.5H29.3333C30.1618 70.5 30.8333 71.1716 30.8333 72C30.8333 72.8284 30.1618 73.5 29.3333 73.5H15.1111C10.3553 73.5 6.5 69.6447 6.5 64.8889V50.6667C6.5 49.8382 7.17157 49.1667 8 49.1667ZM72 49.1667C72.8284 49.1667 73.5 49.8382 73.5 50.6667V64.8889C73.5 69.6447 69.6447 73.5 64.8889 73.5H50.6667C49.8382 73.5 49.1667 72.8284 49.1667 72C49.1667 71.1716 49.8382 70.5 50.6667 70.5H64.8889C67.9878 70.5 70.5 67.9878 70.5 64.8889V50.6667C70.5 49.8382 71.1716 49.1667 72 49.1667Z" fill="#0C1E10"/>
<path fill-rule="evenodd" clip-rule="evenodd" d="M25.8667 40C25.8667 32.1944 32.1944 25.8667 40 25.8667C47.8057 25.8667 54.1334 32.1944 54.1334 40C54.1334 47.8057 47.8057 54.1334 40 54.1334C32.1944 54.1334 25.8667 47.8057 25.8667 40ZM40 28.5334C33.6672 28.5334 28.5334 33.6672 28.5334 40C28.5334 46.3329 33.6672 51.4667 40 51.4667C46.3329 51.4667 51.4667 46.3329 51.4667 40C51.4667 33.6672 46.3329 28.5334 40 28.5334ZM45.4115 36.1886C45.9322 36.7093 45.9322 37.5535 45.4115 38.0742L39.3428 44.1428C38.8221 44.6635 37.9779 44.6635 37.4572 44.1428L35.3886 42.0742C34.8679 41.5535 34.8679 40.7093 35.3886 40.1886C35.9093 39.6679 36.7535 39.6679 37.2742 40.1886L38.4 41.3144L43.5259 36.1886C44.0465 35.6679 44.8908 35.6679 45.4115 36.1886Z" fill="#00DA30"/>
</svg>
