<svg width="19" height="18" viewBox="0 0 19 18" fill="none" xmlns="http://www.w3.org/2000/svg">
<path d="M18.4434 2.41063H16.1272C16.4438 1.96182 16.6151 1.42642 16.6151 0.863911V0.562656C16.6151 0.251876 16.3658 0 16.0585 0C15.751 0 15.5019 0.251876 15.5019 0.562656V0.863911C15.5019 1.71874 14.8179 2.41063 13.9717 2.41063C13.126 2.41063 12.4415 1.71932 12.4415 0.863911V0.562656C12.4415 0.251876 12.1923 0 11.8849 0C11.5775 0 11.3282 0.251876 11.3282 0.562656V0.863911C11.3282 1.42642 11.4996 1.96182 11.8161 2.41063H9.5C9.19254 2.41063 8.94336 2.6625 8.94336 2.97328V3.57594C8.94336 4.5644 9.73773 5.34391 10.6924 5.34391H11.0786C10.4806 5.78715 9.7618 6.02657 9.00627 6.02657H5.02832C4.34629 6.02657 3.69702 6.23903 3.1527 6.63142C1.4016 6.67743 0 8.12232 0 9.90333V12.6159C0 12.9267 0.249184 13.1786 0.556641 13.1786C0.864098 13.1786 1.11328 12.9267 1.11328 12.6159V9.90333C1.11328 9.64456 1.16431 8.77377 1.98869 8.16539C1.85764 8.52423 1.78864 8.9074 1.78864 9.30126V11.4514C1.78864 12.2844 1.92085 13.1078 2.18148 13.8985L2.40254 14.5685L2.99194 17.5475C3.04398 17.8107 3.27244 18 3.53771 18H5.32635C5.63381 18 5.883 17.748 5.883 17.4373V14.9866H10.434V17.4373C10.434 17.7481 10.6832 18 10.9906 18H13.0773C13.3847 18 13.6339 17.7481 13.6339 17.4373V14.7129C14.7594 13.8407 15.4226 12.4915 15.4226 11.0456V8.96H15.4621C16.4402 8.96 17.2114 8.15704 17.2114 7.19203V6.58937C17.2114 6.11888 17.0307 5.67667 16.7033 5.34391H17.2508C18.2126 5.34391 19 4.5581 19 3.57594V2.97328C19 2.6625 18.7508 2.41063 18.4434 2.41063ZM12.4415 4.78125V3.53594H15.5019V4.82228C15.4887 4.82199 15.4755 4.82126 15.4623 4.82126H12.4812C12.4679 4.82126 12.4547 4.82199 12.4416 4.82228V4.78125H12.4415ZM10.2428 4.03002C10.1227 3.90885 10.0566 3.74767 10.0566 3.57594V3.53594H11.3282V4.2186H10.6924C10.5227 4.2186 10.3631 4.15178 10.2428 4.03002ZM8.28191 7.15188C8.02969 8.2328 7.06789 9.04 5.92271 9.04C5.61526 9.04 5.36607 9.29188 5.36607 9.60266C5.36607 10.6216 4.5459 11.4506 3.53771 11.4506H2.90192V9.30126C2.90192 8.11426 3.85198 7.15188 5.02832 7.15188H8.28191ZM14.3094 11.0456C14.3094 12.2177 13.7334 13.3055 12.7685 13.9558C12.6137 14.0601 12.5206 14.2358 12.5206 14.4239V16.8747H11.5472V14.4239C11.5472 14.1133 11.2979 13.8613 10.9906 13.8613H5.32635C5.01904 13.8613 4.76971 14.1133 4.76971 14.4239V16.8747H3.99404L3.48741 14.3136C3.48292 14.2907 3.47697 14.2682 3.46958 14.246L3.23765 13.5427C3.13328 13.2259 3.05326 12.903 2.99745 12.5759H3.53771C4.98237 12.5759 6.18712 11.5179 6.43326 10.1281C7.96692 9.90303 9.18414 8.6797 9.41882 7.13342C9.87399 7.09298 10.3154 6.98601 10.732 6.81693V7.19203C10.732 8.16407 11.5096 8.96 12.4811 8.96H14.3094V11.0456ZM16.0981 7.19203C16.0981 7.54589 15.8145 7.83469 15.4623 7.83469H12.4811C12.131 7.83469 11.8453 7.54808 11.8453 7.19203V6.58937C11.8453 6.23918 12.1253 5.94657 12.4811 5.94657H15.4623C15.8086 5.94657 16.0981 6.22965 16.0981 6.58937V7.19203ZM17.8867 3.57594C17.8867 3.74767 17.8206 3.90884 17.7002 4.03046C17.5803 4.15178 17.4207 4.2186 17.2509 4.2186H16.6151V3.53594H17.8867V3.57594Z" fill="#00D72F"/>
</svg>
